<?xml version="1.0" encoding="UTF-8" standalone="no"?><!DOCTYPE svg PUBLIC "-//W3C//DTD SVG 1.1//EN" "http://www.w3.org/Graphics/SVG/1.1/DTD/svg11.dtd"><svg width="100%" height="100%" viewBox="0 0 300 300" version="1.1" xmlns="http://www.w3.org/2000/svg" xmlns:xlink="http://www.w3.org/1999/xlink" xml:space="preserve" xmlns:serif="http://www.serif.com/" style="fill-rule:evenodd;clip-rule:evenodd;stroke-linejoin:round;stroke-miterlimit:2;"><g><circle cx="150.134" cy="150" r="150" style="fill:url(#_Radial1);"/><g><path d="M56.019,160.375l0,4.852c-2.368,-1.98 -4.817,-2.971 -7.348,-2.971c-2.789,0 -5.139,1.002 -7.049,3.006c-1.922,1.992 -2.883,4.43 -2.883,7.313c0,2.847 0.961,5.25 2.883,7.207c1.922,1.957 4.277,2.935 7.066,2.935c1.442,0 2.666,-0.234 3.674,-0.703c0.563,-0.234 1.146,-0.551 1.749,-0.949c0.604,-0.398 1.24,-0.879 1.908,-1.441l0,4.939c-2.344,1.324 -4.805,1.986 -7.383,1.986c-3.879,0 -7.19,-1.353 -9.932,-4.06c-2.73,-2.731 -4.096,-6.024 -4.096,-9.879c0,-3.457 1.143,-6.539 3.428,-9.246c2.813,-3.317 6.451,-4.975 10.916,-4.975c2.438,0 4.793,0.662 7.067,1.986Z" style="fill-rule:nonzero;"/><path d="M77.13,179.465l-11.619,0l-3.024,6.592l-4.412,0l13.43,-28.846l12.955,28.846l-4.482,0l-2.848,-6.592Zm-1.67,-3.849l-4.025,-9.229l-4.219,9.229l8.244,0Z" style="fill-rule:nonzero;"/><path d="M91.948,158.917l0,23.291l7.981,0l0,3.849l-12.076,0l0,-27.14l4.095,0Z" style="fill-rule:nonzero;"/><path d="M123.87,160.375l0,4.852c-2.367,-1.98 -4.816,-2.971 -7.348,-2.971c-2.789,0 -5.138,1.002 -7.048,3.006c-1.922,1.992 -2.883,4.43 -2.883,7.313c0,2.847 0.961,5.25 2.883,7.207c1.922,1.957 4.277,2.935 7.066,2.935c1.441,0 2.666,-0.234 3.674,-0.703c0.562,-0.234 1.145,-0.551 1.749,-0.949c0.603,-0.398 1.239,-0.879 1.907,-1.441l0,4.939c-2.344,1.324 -4.805,1.986 -7.383,1.986c-3.879,0 -7.189,-1.353 -9.931,-4.06c-2.731,-2.731 -4.096,-6.024 -4.096,-9.879c0,-3.457 1.143,-6.539 3.428,-9.246c2.812,-3.317 6.451,-4.975 10.916,-4.975c2.437,0 4.793,0.662 7.066,1.986Z" style="fill-rule:nonzero;"/><path d="M133.134,158.917l0,16.347c0,2.332 0.381,4.037 1.142,5.115c1.137,1.559 2.737,2.338 4.799,2.338c2.074,0 3.68,-0.779 4.817,-2.338c0.761,-1.043 1.142,-2.748 1.142,-5.115l0,-16.347l4.096,0l0,17.472c0,2.86 -0.891,5.215 -2.672,7.067c-2.004,2.062 -4.465,3.093 -7.383,3.093c-2.918,0 -5.373,-1.031 -7.365,-3.093c-1.781,-1.852 -2.672,-4.207 -2.672,-7.067l0,-17.472l4.096,0Z" style="fill-rule:nonzero;"/><path d="M159.729,158.917l0,23.291l7.981,0l0,3.849l-12.076,0l0,-27.14l4.095,0Z" style="fill-rule:nonzero;"/><path d="M187.538,179.465l-11.619,0l-3.023,6.592l-4.413,0l13.43,-28.846l12.955,28.846l-4.482,0l-2.848,-6.592Zm-1.67,-3.849l-4.025,-9.229l-4.219,9.229l8.244,0Z" style="fill-rule:nonzero;"/><path d="M205.749,162.766l0,23.291l-4.096,0l0,-23.291l-6.24,0l0,-3.849l16.559,0l0,3.849l-6.223,0Z" style="fill-rule:nonzero;"/><path d="M214.274,172.364c0,-3.821 1.401,-7.102 4.202,-9.844c2.789,-2.742 6.14,-4.113 10.054,-4.113c3.867,0 7.184,1.383 9.949,4.148c2.778,2.766 4.167,6.088 4.167,9.967c0,3.902 -1.395,7.213 -4.184,9.932c-2.801,2.73 -6.182,4.095 -10.143,4.095c-3.504,0 -6.65,-1.213 -9.439,-3.638c-3.07,-2.684 -4.606,-6.2 -4.606,-10.547Zm4.131,0.053c0,3 1.008,5.466 3.024,7.4c2.004,1.933 4.318,2.9 6.943,2.9c2.848,0 5.25,-0.984 7.207,-2.953c1.957,-1.992 2.936,-4.418 2.936,-7.277c0,-2.895 -0.967,-5.32 -2.901,-7.278c-1.922,-1.968 -4.301,-2.953 -7.136,-2.953c-2.825,0 -5.209,0.985 -7.155,2.953c-1.945,1.946 -2.918,4.348 -2.918,7.208Z" style="fill-rule:nonzero;"/><path d="M256.989,174.491l8.403,11.566l-5.01,0l-7.752,-11.109l-0.738,0l0,11.109l-4.096,0l0,-27.14l4.799,0c3.586,0 6.176,0.673 7.769,2.021c1.758,1.5 2.637,3.48 2.637,5.941c0,1.922 -0.551,3.575 -1.652,4.957c-1.102,1.383 -2.555,2.268 -4.36,2.655Zm-5.097,-3.112l1.3,0c3.879,0 5.819,-1.482 5.819,-4.447c0,-2.777 -1.887,-4.166 -5.66,-4.166l-1.459,0l0,8.613Z" style="fill-rule:nonzero;"/></g><g><path d="M65.867,72.903l10.451,33.697l13.467,-4.177l2.951,9.513l-24.699,7.66l-13.402,-43.209l11.232,-3.484Z" style="fill-rule:nonzero;"/><path d="M108.402,63.391l2.685,24.453c0.144,1.312 0.341,2.649 0.591,4.009c0.25,1.361 0.685,2.571 1.304,3.63c0.619,1.059 1.504,1.877 2.654,2.455c1.15,0.578 2.699,0.76 4.647,0.546c1.948,-0.214 3.411,-0.727 4.388,-1.538c0.978,-0.812 1.664,-1.802 2.058,-2.973c0.395,-1.17 0.567,-2.446 0.516,-3.829c-0.052,-1.382 -0.149,-2.73 -0.293,-4.042l-2.685,-24.453l11.63,-1.277l2.862,26.064c0.768,6.998 -0.272,12.283 -3.119,15.855c-2.847,3.572 -7.591,5.722 -14.231,6.451c-6.64,0.729 -11.747,-0.34 -15.321,-3.207c-3.574,-2.867 -5.746,-7.799 -6.514,-14.797l-2.861,-26.064l11.689,-1.283Z" style="fill-rule:nonzero;"/><path d="M188.426,77.766c-2.479,-3.503 -5.714,-5.395 -9.705,-5.676c-1.755,-0.124 -3.404,0.081 -4.945,0.614c-1.541,0.533 -2.889,1.31 -4.044,2.331c-1.154,1.022 -2.094,2.269 -2.82,3.741c-0.725,1.473 -1.15,3.087 -1.273,4.843c-0.127,1.795 0.066,3.473 0.577,5.033c0.512,1.56 1.277,2.937 2.296,4.132c1.018,1.194 2.243,2.163 3.675,2.905c1.431,0.742 3.005,1.174 4.72,1.295c3.751,0.264 7.235,-1.094 10.453,-4.076l-0.979,13.886l-1.226,0.335c-1.841,0.512 -3.55,0.862 -5.127,1.052c-1.577,0.19 -3.124,0.231 -4.64,0.124c-3.112,-0.219 -6.054,-1.018 -8.824,-2.396c-2.77,-1.378 -5.167,-3.211 -7.191,-5.499c-2.024,-2.288 -3.591,-4.945 -4.701,-7.97c-1.11,-3.026 -1.543,-6.274 -1.299,-9.745c0.245,-3.472 1.118,-6.608 2.618,-9.41c1.501,-2.801 3.412,-5.173 5.734,-7.114c2.323,-1.942 4.962,-3.4 7.917,-4.375c2.956,-0.974 6.01,-1.351 9.162,-1.129c1.796,0.127 3.548,0.441 5.257,0.942c1.709,0.502 3.493,1.219 5.352,2.152l-0.987,14.005Z" style="fill-rule:nonzero;"/><path d="M215.7,84.345l18.972,-13.925l13.945,4.047l-23.198,15.572l12.204,28.344l-14.636,-4.247l-9.226,-23.107l-5.468,18.843l-11.294,-3.277l12.607,-43.448l11.294,3.277l-5.2,17.921Z" style="fill-rule:nonzero;"/></g></g><defs><radialGradient id="_Radial1" cx="0" cy="0" r="1" gradientUnits="userSpaceOnUse" gradientTransform="matrix(150.134,0,0,150.134,150,150)"><stop offset="0" style="stop-color:#fff;stop-opacity:1"/><stop offset="0.65" style="stop-color:#fafafa;stop-opacity:1"/><stop offset="0.84" style="stop-color:#eee;stop-opacity:1"/><stop offset="1" style="stop-color:#dfdfdf;stop-opacity:1"/></radialGradient></defs></svg>